<svg width="443" height="40" viewBox="0 0 443 40" fill="none" xmlns="http://www.w3.org/2000/svg">
    <g clip-path="url(#0uolzcilda)">
        <path fill-rule="evenodd" clip-rule="evenodd" d="M443.078 11.536C443.078 4.511 437.486 0 431.207 0c-6.28 0-11.871 4.483-11.871 11.536 0 7.054 5.591 11.594 11.871 11.594 6.279 0 11.871-4.569 11.871-11.594zm-3.154 0c0 5.286-3.929 9.119-8.717 9.119-4.856 0-8.717-3.862-8.717-9.119 0-5.256 3.928-9.06 8.717-9.06 4.788 0 8.717 3.775 8.717 9.06zm-8.44-6.49H426.6l-.01-.009v12.96h2.571v-5.533h1.606l3.154 5.534h2.686l-3.46-5.659c1.921-.153 3.403-1.08 3.403-3.46 0-2.81-1.816-3.832-5.066-3.832zm-.029 5.41h-2.284V7.054h2.16c1.176 0 2.657.21 2.657 1.605 0 1.578-1.08 1.797-2.533 1.797zM243.317 26.963c.07 8.498 5.984 13.008 15.837 13.008 9.233 0 14.949-4.052 14.949-11.374 0-5.868-3.527-9.242-12.254-10.953l-3.221-.621c-5.505-1.138-7.216-2.485-7.216-5.448 0-2.8 2.179-4.569 6.643-4.569 5.868 0 7.895 2.237 8.153 6.184h6.796c-.258-6.958-4.674-11.833-15.054-11.833-8.88 0-13.706 4.31-13.706 10.438 0 6.69 4.731 9.854 11.89 11.211l3.116.621c5.658 1.147 7.579 2.447 7.579 5.353 0 3.488-2.647 5.352-7.474 5.352-5.142 0-9.032-1.548-9.138-7.369h-6.9zm60.501 12.196v-6.28h-17.605V2.2h-7.006v36.96h24.611zm28.407-8.143h-16.192l-2.857 8.153h-7.217l14.07-36.961h8.2l14.328 36.96h-7.427l-2.905-8.152zm-2.122-5.974-1.453-3.995c-1.3-3.374-3.059-8.306-4.569-12.674a685.61 685.61 0 0 1-4.521 12.674l-1.405 3.995h11.948zm20.578 1.921h-6.901l-.019-.029c.057 8.516 5.974 13.037 15.838 13.037 9.242 0 14.958-4.052 14.958-11.374 0-5.868-3.537-9.242-12.254-10.953l-3.221-.621c-5.505-1.138-7.216-2.485-7.216-5.448 0-2.8 2.179-4.569 6.643-4.569 5.868 0 7.895 2.237 8.153 6.184h6.805c-.258-6.958-4.674-11.833-15.054-11.833-8.879 0-13.706 4.31-13.706 10.438 0 6.69 4.731 9.854 11.89 11.211l3.116.621c5.658 1.147 7.58 2.447 7.58 5.353 0 3.488-2.648 5.352-7.475 5.352-5.142 0-9.032-1.548-9.137-7.369zm60.196-24.765v36.97h-7.006v-15.78h-17.185v15.78h-7.006V2.199h7.006v14.844h17.185V2.198h7.006zM6.901 26.963H0C.057 35.479 5.974 40 15.847 39.99c9.233 0 14.949-4.052 14.949-11.374 0-5.868-3.527-9.242-12.254-10.953l-3.22-.621c-5.506-1.138-7.217-2.485-7.217-5.448 0-2.8 2.18-4.569 6.643-4.569 5.868 0 7.895 2.237 8.153 6.184h6.796c-.258-6.958-4.674-11.833-15.054-11.833C5.763 1.376.937 5.687.937 11.804c0 6.7 4.721 9.864 11.88 11.202l3.116.621c5.658 1.147 7.58 2.447 7.58 5.353 0 3.488-2.648 5.352-7.475 5.352-5.142 0-9.032-1.548-9.137-7.369zm53.6 5.926v6.28h-24.61V2.208h7.005v30.68h17.606zm12.216-1.874h16.2l2.906 8.154h7.427L84.922 2.208h-8.2l-14.08 36.96h7.217l2.858-8.152zm12.616-9.968 1.453 3.995H74.84l1.405-3.995a685.662 685.662 0 0 0 4.52-12.674c1.51 4.368 3.27 9.3 4.57 12.674zm15.131 5.916h6.9c.106 5.82 3.996 7.37 9.138 7.37 4.827 0 7.474-1.865 7.474-5.353 0-2.906-1.921-4.206-7.579-5.353l-3.116-.621c-7.159-1.357-11.89-4.52-11.89-11.212 0-6.126 4.826-10.437 13.706-10.437 10.38 0 14.795 4.875 15.054 11.833h-6.806c-.258-3.947-2.284-6.184-8.153-6.184-4.463 0-6.642 1.768-6.642 4.569 0 2.963 1.71 4.31 7.216 5.448l3.221.621c8.717 1.71 12.253 5.085 12.253 10.953 0 7.322-5.716 11.374-14.958 11.374-9.864 0-15.78-4.52-15.838-13.037l.02.029zm67.096 12.206V2.208h-7.006V17.05h-17.185V2.208h-7.006v36.96h7.006v-15.78h17.185v15.78h7.006zm53.84-10.59c0 6.336-4.157 10.59-12.874 10.59h-17.291V2.208h16.717c8.516 0 11.938 4.511 11.938 9.558 0 3.632-1.864 6.385-4.932 7.943 4.359 1.615 6.433 5.19 6.433 8.879l.009-.01zM198.251 7.97v9.654h9.185c3.632 0 5.505-1.921 5.505-4.98 0-2.753-1.863-4.674-5.505-4.674h-9.185zm15.99 20.292c0-3.48-2.284-5.142-6.079-5.142h-9.911v10.227h9.911c3.944 0 6.075-1.86 6.079-5.085z" fill="#fff"/>
    </g>
    <defs>
        <clipPath id="0uolzcilda">
            <path fill="#fff" d="M0 0h443.078v40H0z"/>
        </clipPath>
    </defs>
</svg>
