<svg width="79" height="12" viewBox="0 0 79 12" xmlns="http://www.w3.org/2000/svg">
    <path d="M6.226 0c2.726 0 4.983 1.5 5.435 4.37H8.903c-.355-1.354-1.387-2.015-2.677-2.015-1.855 0-2.887 1.37-2.887 3.645 0 2.29 1.032 3.645 2.887 3.645 1.354 0 2.484-.79 2.742-2.322h2.725C11.34 10.387 9.048 12 6.226 12 2.806 12 .5 9.693.5 6s2.226-6 5.726-6zm20.901 0c3.13 0 4.694 1.387 4.79 3.742h-2.58c-.065-1.064-.63-1.613-2.161-1.613-1.194 0-1.758.436-1.758 1.161 0 .807.532 1.13 1.95 1.404l.969.177c2.758.5 3.967 1.548 3.967 3.5 0 2.42-1.935 3.629-4.87 3.629-3.274 0-5.016-1.548-5.032-4.032h2.645c.032 1.564 1.064 1.903 2.483 1.903 1.29 0 1.952-.468 1.952-1.322 0-.775-.484-1.081-2.064-1.372L26.482 7c-2.42-.42-3.838-1.516-3.838-3.597C22.644 1.452 24.127 0 27.127 0zm35.965 0c3.13 0 4.693 1.387 4.79 3.742h-2.58c-.065-1.064-.63-1.613-2.161-1.613-1.194 0-1.758.436-1.758 1.161 0 .807.532 1.13 1.95 1.404l.968.177c2.759.5 3.968 1.548 3.968 3.5 0 2.42-1.935 3.629-4.87 3.629-3.275 0-5.016-1.548-5.033-4.032h2.645c.033 1.564 1.065 1.903 2.484 1.903 1.29 0 1.952-.468 1.952-1.322 0-.775-.484-1.081-2.065-1.372L62.447 7c-2.42-.42-3.839-1.516-3.839-3.597C58.608 1.452 60.092 0 63.092 0zM37.69.258l1.516 4.936c.274.919.548 1.919.79 2.854.242-.951.516-1.984.774-2.903l1.5-4.887h4.08v11.484h-2.596V8.371c0-1.839.016-3.58.097-5.549-.242.871-.468 1.63-.774 2.613l-1.984 6.307h-2.226l-1.984-6.307a53.223 53.223 0 0 1-.758-2.596c.065 1.967.08 3.693.08 5.532v3.371H33.61V.258h4.08zm-22.998 0 .87 1.339c.468.71.904 1.435 1.34 2.129.435-.71.87-1.42 1.338-2.13l.887-1.338h3.048l-3.725 5.597 3.967 5.887h-3.161l-.952-1.435c-.516-.775-1-1.516-1.483-2.29-.468.774-.968 1.531-1.468 2.29l-.952 1.435h-3.096l3.983-5.839L11.548.258h3.145zm35.965 0 .87 1.339c.468.71.904 1.435 1.34 2.129.435-.71.87-1.42 1.338-2.13l.887-1.338h3.048l-3.726 5.597 3.968 5.887h-3.161l-.952-1.435c-.516-.775-1-1.516-1.484-2.29-.467.774-.967 1.531-1.467 2.29l-.952 1.435H47.27l3.984-5.839L47.512.258h3.146zM73.43 0c2.37 0 4.226 1.807 4.226 4.113 0 2.274-1.855 4.08-4.226 4.08-2.387 0-4.242-1.806-4.242-4.08C69.188 1.807 71.043 0 73.43 0zm0 .92c-1.839 0-3.242 1.37-3.242 3.193 0 1.806 1.403 3.16 3.242 3.16 1.822 0 3.225-1.354 3.225-3.16 0-1.823-1.403-3.194-3.225-3.194zM73.72 2c.968 0 1.532.452 1.532 1.226 0 .403-.193.742-.58.935.403.178.484.516.5.904l.032.564c.016.258.08.403.177.516H74.22c-.08-.145-.113-.306-.129-.516l-.032-.436c-.033-.403-.145-.516-.5-.516h-.694v1.468H71.77V2h1.951zm-.129.92h-.726v.903h.742c.323 0 .5-.178.5-.452 0-.307-.177-.452-.516-.452z" fill="#FEFEFE" fill-rule="evenodd"/>
</svg>
