<svg width="14" height="14" viewBox="0 0 14 14" fill="none" xmlns="http://www.w3.org/2000/svg">
    <path d="m1.455 7.729.433-.25-.433.25zm0-1 .433.25-.433-.25zm2.34 5.051-.433.25.433-.25zm6.41 0-.433-.25.433.25zm2.34-4.051.433.25-.433-.25zm0-1 .433-.25-.433.25zm-2.34-4.052-.433.25.433-.25zm-6.41 0-.433-.25.433.25zM1.888 7.479a.5.5 0 0 1 0-.5l-.866-.5a1.5 1.5 0 0 0 0 1.5l.866-.5zm2.34 4.051L1.888 7.48l-.866.5 2.34 4.051.866-.5zm.433.25a.5.5 0 0 1-.433-.25l-.866.5a1.5 1.5 0 0 0 1.299.75v-1zm4.678 0H4.661v1h4.678v-1zm.433-.25a.5.5 0 0 1-.433.25v1a1.5 1.5 0 0 0 1.3-.75l-.867-.5zm2.34-4.051-2.34 4.051.866.5 2.34-4.051-.866-.5zm0-.5a.5.5 0 0 1 0 .5l.866.5a1.5 1.5 0 0 0 0-1.5l-.866.5zm-2.34-4.052 2.34 4.052.866-.5-2.34-4.052-.866.5zm-.433-.25a.5.5 0 0 1 .433.25l.866-.5a1.5 1.5 0 0 0-1.299-.75v1zm-4.678 0h4.678v-1H4.661v1zm-.433.25a.5.5 0 0 1 .433-.25v-1a1.5 1.5 0 0 0-1.3.75l.867.5zm-2.34 4.052 2.34-4.052-.866-.5-2.34 4.052.866.5zm5.779.25A.667.667 0 0 1 7 7.896v1c.92 0 1.667-.747 1.667-1.667h-1zM7 6.562c.368 0 .667.299.667.667h1c0-.92-.746-1.667-1.667-1.667v1zm-.667.667c0-.368.299-.667.667-.667v-1c-.92 0-1.667.746-1.667 1.667h1zM7 7.896a.667.667 0 0 1-.667-.667h-1c0 .92.747 1.667 1.667 1.667v-1z" fill="#CCC"/>
</svg>
