<svg width="178" height="16" viewBox="0 0 178 16" fill="none" xmlns="http://www.w3.org/2000/svg">
    <g clip-path="url(#a0270zw5va)">
        <path fill-rule="evenodd" clip-rule="evenodd" d="M177.231 4.615c0-2.81-2.237-4.615-4.748-4.615-2.512 0-4.749 1.793-4.749 4.615 0 2.821 2.237 4.637 4.749 4.637 2.511 0 4.748-1.827 4.748-4.637zm-1.262 0c0 2.114-1.571 3.647-3.486 3.647-1.943 0-3.487-1.545-3.487-3.647 0-2.103 1.571-3.625 3.487-3.625 1.915 0 3.486 1.51 3.486 3.625zm-3.375-2.596h-1.954l-.004-.004v5.184h1.028V4.985h.643l1.261 2.214h1.075l-1.384-2.263c.768-.061 1.361-.432 1.361-1.384 0-1.124-.727-1.533-2.026-1.533zm-.012 2.164h-.914V2.822h.864c.471 0 1.063.084 1.063.642 0 .63-.432.719-1.013.719zm-75.255 6.602c.028 3.4 2.394 5.204 6.335 5.204 3.693 0 5.979-1.622 5.979-4.55 0-2.347-1.411-3.697-4.901-4.381l-1.289-.249c-2.202-.455-2.886-.994-2.886-2.18 0-1.12.872-1.827 2.657-1.827 2.347 0 3.158.895 3.261 2.474h2.718c-.103-2.783-1.869-4.733-6.021-4.733-3.552 0-5.483 1.724-5.483 4.175 0 2.676 1.893 3.941 4.757 4.484l1.246.249c2.263.459 3.032.979 3.032 2.14 0 1.396-1.059 2.142-2.99 2.142-2.057 0-3.613-.62-3.655-2.948h-2.76zm24.2 4.879v-2.512h-7.042V.879h-2.802v14.785h9.844zm11.363-3.258h-6.477l-1.143 3.261h-2.886L128.011.883h3.281l5.731 14.784h-2.971l-1.162-3.26zm-.849-2.39-.581-1.597a175.74 175.74 0 0 1-1.828-5.07 272.95 272.95 0 0 1-1.808 5.07l-.562 1.598h4.779zm8.231.77h-2.76l-.008-.012c.023 3.406 2.39 5.215 6.335 5.215 3.697 0 5.984-1.622 5.984-4.55 0-2.347-1.415-3.697-4.902-4.381l-1.288-.249c-2.202-.455-2.887-.994-2.887-2.18 0-1.12.872-1.827 2.658-1.827 2.347 0 3.157.895 3.261 2.474h2.722c-.103-2.783-1.87-4.733-6.022-4.733-3.551 0-5.482 1.724-5.482 4.175 0 2.676 1.892 3.941 4.756 4.484l1.246.249c2.264.459 3.032.979 3.032 2.14 0 1.396-1.059 2.142-2.99 2.142-2.057 0-3.613-.62-3.655-2.948zM164.351.878v14.788h-2.803V9.355h-6.874v6.312h-2.802V.88h2.802v5.938h6.874V.879h2.803zM2.761 10.785H0C.023 14.192 2.39 16 6.339 15.996c3.693 0 5.98-1.62 5.98-4.55 0-2.347-1.412-3.696-4.902-4.38l-1.288-.25c-2.203-.454-2.887-.993-2.887-2.178 0-1.12.872-1.828 2.657-1.828 2.348 0 3.158.895 3.261 2.474h2.719C11.775 2.5 10.009.55 5.857.55 2.305.55.375 2.275.375 4.72c0 2.68 1.888 3.946 4.752 4.481l1.246.249c2.264.459 3.032.979 3.032 2.14 0 1.396-1.059 2.142-2.99 2.142-2.057 0-3.613-.62-3.655-2.948zm21.44 2.37v2.512h-9.845V.883h2.802v12.273H24.201zm4.886-.749h6.48l1.162 3.261h2.97L33.97.883h-3.28l-5.632 14.784h2.887l1.143-3.26zm5.046-3.987.581 1.598H29.937l.561-1.598c.501-1.35 1.205-3.327 1.809-5.07a173.19 173.19 0 0 0 1.827 5.07zm6.052 2.366h2.76c.043 2.329 1.599 2.948 3.656 2.948 1.93 0 2.99-.746 2.99-2.141 0-1.162-.769-1.682-3.032-2.141l-1.247-.249c-2.863-.543-4.756-1.808-4.756-4.484 0-2.45 1.931-4.175 5.483-4.175 4.152 0 5.918 1.95 6.021 4.733h-2.722c-.103-1.579-.914-2.474-3.261-2.474-1.785 0-2.657.708-2.657 1.828 0 1.185.684 1.724 2.886 2.18l1.289.248c3.486.684 4.901 2.034 4.901 4.38 0 2.93-2.286 4.55-5.983 4.55-3.946 0-6.312-1.808-6.335-5.214l.007.011zm26.84 4.882V.883h-2.803v5.938h-6.874V.883h-2.803v14.784h2.803V9.355h6.874v6.312h2.802zm21.535-4.236c0 2.535-1.663 4.236-5.15 4.236h-6.916V.883h6.687c3.406 0 4.775 1.805 4.775 3.823 0 1.453-.746 2.554-1.973 3.177 1.744.647 2.573 2.076 2.573 3.552l.004-.004zM79.3 3.19v3.86h3.674c1.453 0 2.203-.768 2.203-1.99 0-1.102-.746-1.87-2.203-1.87H79.3zm6.397 8.114c-.001-1.39-.915-2.055-2.432-2.055H79.3v4.091h3.965c1.578 0 2.43-.745 2.431-2.036zm0 0v.002-.004.002z" fill="#000"/>
    </g>
    <defs>
        <clipPath id="a0270zw5va">
            <path fill="#fff" d="M0 0h177.231v16H0z"/>
        </clipPath>
    </defs>
</svg>
