<svg width="30" height="12" viewBox="0 0 30 12" fill="none" xmlns="http://www.w3.org/2000/svg">
    <g clip-path="url(#4n2eudd0sa)" fill="#fff">
        <path d="M15.297 10.103h.705l-2.374-8.378h-.705l2.374 8.378zM3.834 6.82h.797c.013.921.643 1.2 1.453 1.2s1.224-.31 1.224-.89c0-.47-.315-.687-1.205-.885l-.458-.099c-.964-.192-1.663-.606-1.663-1.57 0-.866.705-1.447 1.886-1.447 1.533 0 2.096.754 2.114 1.681h-.791c-.043-.63-.352-1.001-1.317-1.001-.717 0-1.076.29-1.076.748 0 .457.247.692 1.163.896l.463.1c1.243.26 1.713.741 1.713 1.551 0 .99-.773 1.596-2.071 1.596-1.299 0-2.232-.594-2.239-1.88M13.09 7.859v.717H9.076v-5.33h.797V7.86h3.215zM21.177 7.067c0 .903-.593 1.509-1.78 1.509h-2.4v-5.33h2.3c1.169 0 1.67.643 1.67 1.385 0 .532-.26.921-.705 1.162.643.242.921.742.921 1.274M17.801 3.94v1.595h1.447c.63 0 .934-.316.934-.829 0-.451-.31-.76-.934-.76H17.8v-.006zm2.572 3.11c0-.594-.383-.854-1.02-.854h-1.558v1.688h1.558c.674 0 1.02-.315 1.02-.84M21.857 6.82h.798c.012.921.643 1.2 1.453 1.2s1.224-.31 1.224-.89c0-.47-.316-.687-1.206-.885l-.457-.099c-.965-.192-1.664-.606-1.664-1.57 0-.866.705-1.447 1.886-1.447 1.534 0 2.096.754 2.115 1.681h-.792c-.043-.63-.352-1.001-1.317-1.001-.717 0-1.075.29-1.075.748 0 .457.247.692 1.162.896l.464.1c1.242.26 1.712.741 1.712 1.551 0 .99-.773 1.596-2.07 1.596-1.3 0-2.233-.594-2.24-1.88"/>
        <path d="M15 0C5.373 0 0 2.146 0 5.911c0 3.765 5.373 5.91 15 5.91 9.627 0 15-2.145 15-5.91S24.627 0 15 0zm0 11.315C5.787 11.315.507 9.349.507 5.91.507 2.473 5.787.507 15 .507c9.213 0 14.493 1.972 14.493 5.404S24.213 11.315 15 11.315z"/>
    </g>
    <defs>
        <clipPath id="4n2eudd0sa">
            <path fill="#fff" d="M0 0h30v11.828H0z"/>
        </clipPath>
    </defs>
</svg>
